<?xml version="1.0" encoding="UTF-8"?>
<!DOCTYPE svg PUBLIC "-//W3C//DTD SVG 1.1//EN" "http://www.w3.org/Graphics/SVG/1.1/DTD/svg11.dtd">
<!-- Creator: CorelDRAW X6 -->
<svg xmlns="http://www.w3.org/2000/svg" xml:space="preserve" width="22.5776mm" height="22.5054mm" version="1.1" style="shape-rendering:geometricPrecision; text-rendering:geometricPrecision; image-rendering:optimizeQuality; fill-rule:evenodd; clip-rule:evenodd"
viewBox="0 0 87 87"
 xmlns:xlink="http://www.w3.org/1999/xlink">
 <defs>
  <style type="text/css">
   <![CDATA[
    .fil0 {fill:#FF4560}
   ]]>
  </style>
 </defs>
 <g id="Layer_x0020_1">
  <metadata id="CorelCorpID_0Corel-Layer"/>
  <path class="fil0" d="M74 74l-1 1c1,0 1,0 1,0 1,-1 3,-2 4,-3 0,0 0,0 0,0 -1,1 -3,3 -4,4 0,0 0,0 0,0 1,0 3,-1 4,-1 0,0 0,0 0,0 -1,1 -2,1 -3,2 0,0 0,0 0,0 0,0 1,0 2,-1 0,0 0,0 0,0 -1,1 -1,2 -2,3 1,0 2,-1 3,-1 -1,0 -1,1 -1,1 -1,0 -1,1 -1,1 1,0 2,-1 3,-1 0,1 -1,1 -1,1 0,1 0,1 0,1 1,0 3,0 5,-1 0,1 0,1 0,1 -1,0 -1,0 -2,0 2,1 4,0 6,1 0,1 0,1 0,1 -1,0 -2,0 -3,0 -1,0 -2,0 -4,0 0,0 0,1 -1,1 1,-1 1,-1 1,-1 0,0 0,0 0,0l-1 1c-1,0 -1,0 -1,0 -1,0 -1,0 -2,0l1 0c-1,0 -1,0 -1,0 1,-1 1,-2 1,-3 0,0 0,0 0,0 0,1 -1,2 -2,4l-1 0 0 0c0,0 0,0 0,-1 0,0 0,0 0,-1 1,-1 1,-1 1,-2 0,0 0,0 0,-1 -1,2 -1,4 -2,5 -1,0 -1,0 -1,0 0,0 -1,0 -1,0 1,-1 2,-1 2,-1 0,0 0,0 0,-1 0,1 -1,1 -2,1 0,0 0,-1 0,-1 0,0 0,0 0,0 0,1 0,1 0,2 -1,0 -1,0 -1,0 0,-1 1,-2 2,-3 0,0 0,0 0,0 -1,0 -2,1 -2,1 0,0 -1,0 -1,0 1,-1 2,-2 2,-3 0,0 0,0 0,0 -1,1 -2,3 -3,5 0,0 0,0 0,0 0,-1 0,-1 0,-2 0,0 0,0 0,0 0,1 0,1 -1,1 0,1 0,1 0,1 0,-1 1,-2 2,-3 0,0 0,0 -1,0 0,1 -1,1 -2,2 0,0 0,0 0,0l-1 0 0 -6 -1 6 -1 -4 -1 5 0 -1c0,0 0,1 -1,1 0,0 0,0 0,0 0,0 0,0 -1,0 0,0 0,0 -1,0 1,0 1,-1 2,-1 -1,0 -1,0 -1,0 0,-1 0,-1 1,-2 0,0 -1,0 -1,0 0,1 -1,2 -1,3 0,0 -1,0 -1,0 1,-1 1,-2 2,-4 -1,1 -1,1 -1,1 0,0 0,0 -1,1 1,-1 1,-1 1,-2l-1 4 -1 -4 -1 4 0 -6 0 0 -2 5 0 -3 0 1c0,0 -1,1 -1,2 0,-2 0,-3 0,-5 0,1 0,2 0,3 -1,0 -1,0 -1,0l0 2 -1 -5 0 5 -1 -2 -1 3 -1 -5 -1 5 -1 -2c0,1 0,1 0,2 0,0 0,0 0,0 0,-1 0,-2 0,-2 0,0 0,0 0,0 -1,0 -1,1 -1,2 -1,-1 0,-2 0,-2 -1,0 -1,0 -1,1 0,-1 -1,-2 -1,-3 -1,0 -1,0 -1,0 0,1 0,1 0,1 1,0 1,1 1,1 1,1 0,1 0,2 0,-1 0,-1 -1,-2 0,1 -1,1 -1,2 0,0 0,-1 0,-1 0,0 0,-1 0,-1 -1,2 -1,2 -2,1 1,0 1,-1 1,-2 0,0 0,0 0,0 0,1 -1,1 -1,1 0,0 0,0 -1,-1 0,1 1,2 1,3 -1,0 -1,0 -1,0 0,-1 0,-1 0,-2 -1,1 -1,1 -2,2 0,0 0,0 0,0 0,-1 0,-2 0,-2 0,0 0,0 0,0 0,0 -1,1 -1,2l0 0c0,-1 -1,-2 -1,-3 0,2 0,3 1,4 -2,0 -2,-1 -2,-2 0,1 0,1 -1,1 0,0 0,-1 0,-2 0,0 0,0 -1,0 1,1 1,1 1,2 -1,0 -1,-1 -2,-1 0,0 0,0 0,0 1,1 1,1 2,2 -1,0 -2,-1 -2,-1 0,0 0,0 0,0 0,0 0,-1 0,-1l-1 2 0 -5 -1 6 0 0 -1 -3 -1 3 0 0c0,-1 1,-5 1,-5l-1 3 -1 -4 0 5 0 -2c0,0 0,0 0,-1 0,0 0,0 -1,0 0,1 0,2 0,2 0,1 0,1 -1,1 0,-1 1,-2 1,-3 0,0 0,0 0,0 -1,1 -1,2 -2,3 0,0 0,-1 0,-1 0,-1 0,-1 0,-2 0,0 0,0 0,0 0,1 -1,1 -1,2 0,1 0,1 -1,2 0,-2 1,-4 2,-5 -2,1 -2,3 -3,5 0,-1 0,-1 0,-2 0,0 0,-1 0,-1 0,0 0,1 0,1 0,0 0,0 0,0 0,-1 0,-2 0,-3 0,0 0,0 0,0 0,1 -1,2 -1,2 0,0 0,0 0,0 0,0 0,0 -1,-1l0 2 -1 -4 0 5 -1 -4 0 5 -1 -4c0,1 0,2 -1,3 0,0 0,0 0,0l0 0 0 -1 0 2 0 -4c0,-1 0,-3 0,-3l-1 4 -1 3 0 0 0 -3 -1 1 0 -4 -1 5 0 0 0 -3 0 0c0,1 0,2 0,2 0,1 0,1 0,1l-1 0 -1 -6c0,0 -1,0 -1,0l2 6c-1,0 -1,-1 -2,-1 0,0 0,0 0,0 0,0 0,0 0,0 -1,0 -1,0 -1,0 -1,0 -2,0 -4,0l0 -2 0 0 -1 0c1,0 1,0 2,0 0,-1 0,-1 0,-1 0,0 0,0 1,0 0,0 0,0 0,0 0,0 -1,0 -1,-1 0,0 0,0 0,0 0,0 1,0 1,0 0,0 0,0 0,0 0,-1 -1,-1 -2,-2 0,0 0,0 0,0 1,0 2,1 3,2 0,-1 0,-1 0,-1 0,-1 -1,-2 -2,-4 1,1 2,2 3,3 0,0 0,0 0,0 -1,-1 -2,-3 -3,-5 0,0 0,0 1,0 0,1 1,2 2,3 0,0 0,0 0,0 0,0 0,-1 0,-1 0,1 1,2 2,3 0,-1 0,-1 -1,-2 1,0 1,0 1,0 0,0 0,1 0,1 0,0 0,0 0,0 0,-1 0,-2 0,-2 0,0 0,0 0,-1 0,1 0,2 0,2 1,0 1,0 1,0 0,-1 -1,-2 -1,-4 1,2 1,4 2,5 0,0 0,0 0,0l0 -1 1 1 0 -3 1 2 0 -4 1 3 1 -3 1 4 0 -1c0,0 0,0 0,0 0,0 0,1 0,1 0,0 0,0 1,0 0,0 0,0 0,0 0,0 0,0 0,-1 0,0 0,0 0,0 0,0 0,1 0,1 0,0 0,0 0,0 1,0 1,-1 1,-2 0,0 0,0 0,0 0,1 0,1 1,2 0,0 0,0 0,0 0,-1 0,-2 0,-3 0,1 0,2 1,3 0,0 0,0 0,0 0,-1 0,-2 0,-3 0,0 0,0 0,0 1,1 1,2 1,2 0,0 0,-1 1,-1 0,0 0,0 0,0 0,0 0,1 0,1 0,0 0,0 0,0 0,-1 0,-2 0,-3 0,0 0,0 0,0 0,1 0,1 0,2 1,-1 1,-2 1,-3 0,2 0,3 0,4 1,0 1,-1 1,-1 0,0 0,-1 0,-1l0 0c0,0 0,0 0,0 0,0 0,0 1,1 0,-1 0,-2 0,-3 0,0 1,0 1,0 0,0 0,1 0,2 0,0 0,0 0,0 0,-2 1,-3 1,-5 0,2 0,3 0,5 0,-1 1,-1 1,-2l0 0 0 0 0 0 0 0 0 0 0 0c0,-2 0,-5 0,-7 0,-1 0,-1 -1,-2 0,-1 0,-2 0,-3 0,-1 0,-2 -1,-2 0,-1 0,-1 -1,-2 0,0 0,0 0,0 -1,0 -2,0 -2,-1 0,0 0,0 0,0 -1,0 -1,0 -1,0 -1,0 -1,0 -2,-1 0,0 0,0 0,0 0,-1 0,-1 -1,-1 0,0 0,-1 -1,-1 0,-1 0,-1 0,-1 0,0 0,0 0,0 -1,0 -2,-1 -2,-1 0,-1 0,-1 -1,-2 0,0 0,0 0,-1 0,0 0,0 0,0 1,1 1,1 2,0 0,0 0,0 0,0 -1,0 -1,0 -2,-1 0,0 0,0 0,0 0,-1 -1,-1 -1,-2 -1,0 -1,-1 -1,-1 1,0 1,0 1,1 1,0 1,0 2,0 -1,-1 -2,-1 -2,-2 -1,0 -1,0 -1,0 0,-1 0,-1 0,-2 -1,0 -1,-1 -1,-1 1,0 1,1 2,1 0,0 0,0 0,0 -1,-1 -1,-1 -1,-2 0,0 0,0 -1,0 0,-1 -1,-1 0,-2 0,0 0,1 1,1 0,0 1,0 1,0 0,0 0,0 0,0 -1,0 -1,-1 -1,-2 -1,0 -1,0 -1,0 0,-1 -1,-1 0,-2 0,0 0,0 0,0 0,1 1,1 1,2 1,0 1,0 2,0 1,0 2,0 2,0 0,0 -1,0 -1,0 -1,0 -1,0 -1,-1 0,0 0,0 0,0 -1,0 -1,0 -1,0 -1,-1 -2,-1 -2,-2 0,0 0,-1 0,-1 -1,0 -1,-1 0,-1 0,0 0,1 1,1 0,0 0,-1 0,-1 -1,0 -1,-1 -2,-3 0,0 0,0 1,-1 0,1 0,2 0,2 1,1 1,1 2,1 0,0 -1,0 -1,-1 0,0 -1,-1 0,-1 0,0 0,0 0,0 1,1 1,1 2,0 0,0 1,0 1,0 1,0 1,0 1,0 0,0 0,0 -1,0 0,0 0,-1 0,-1 -1,1 -2,0 -3,-1 -1,0 -1,-1 -1,-1 1,0 1,0 1,0 0,0 0,1 1,1 -1,-1 -1,-2 -1,-2 -1,0 -1,-1 -1,-1 1,0 1,1 2,1 -1,-1 -1,-2 -2,-3 0,0 1,0 1,0 0,0 0,1 1,1 -1,-1 -1,-1 -1,-2 0,0 -1,0 -1,0 -1,0 -1,0 -2,0 -1,1 -1,1 -2,1 -1,0 -2,0 -2,-1 0,0 -1,-1 -1,-1 0,0 0,0 -1,0 0,-1 0,-2 1,-2 0,0 0,0 0,0 0,0 0,0 0,1 0,-1 1,-2 2,-2 0,0 0,0 -1,0 0,0 0,0 0,0 -1,0 -1,0 -1,-1 0,0 0,0 0,0 2,-3 4,-5 6,-6 0,0 0,0 0,-1 0,0 0,0 0,-1 0,0 0,0 0,-1 1,0 1,1 1,1 0,-1 0,-1 0,-1 1,-1 1,-1 1,-1 0,1 0,1 0,1 0,0 0,0 1,-1 0,1 0,1 0,1 0,0 1,0 1,0 0,0 0,0 0,0 0,-1 0,-1 1,-1 0,0 0,1 0,1 0,0 0,0 0,0 0,-1 0,-1 0,-1 1,0 1,0 2,1 0,0 0,-1 0,-1 0,0 0,1 1,1 0,0 0,0 0,0 0,0 0,0 1,0 0,0 -1,-1 -1,-1 0,0 0,-1 0,-1 2,-2 3,-3 6,-3 3,0 5,1 7,3 2,3 0,8 -3,9 -2,1 -4,0 -5,-1 -1,0 -2,-2 -2,-3 0,-1 1,-1 1,-2 1,0 2,-1 3,-1 0,0 0,0 1,0 0,0 0,0 0,1 0,0 0,1 0,1 0,0 0,1 -1,1 0,0 1,0 1,0 0,0 0,-1 0,-1 1,0 1,0 1,1 0,0 0,0 0,0 1,0 1,1 0,1 -1,1 -2,1 -3,1 0,0 0,0 0,0 0,0 0,0 -1,0 0,0 0,0 1,0 0,0 2,1 3,0 1,-1 2,-2 1,-3 0,-2 -2,-4 -4,-3 -1,0 -1,0 -1,0 0,1 1,0 1,1 0,0 0,0 0,0 -3,1 -4,2 -3,4 1,2 2,3 4,4 2,0 4,-1 5,-2 0,0 0,0 0,0 0,0 0,0 0,0 0,0 0,0 0,2 0,0 1,-1 1,-1 0,0 0,-1 0,-1 0,0 0,-1 0,-1 0,0 0,0 0,1 1,0 1,1 1,1 0,0 0,1 0,1 0,0 0,1 0,1 0,0 0,1 0,1 0,0 0,1 -1,1 1,0 1,-1 1,-1 0,-1 0,-1 0,-1 1,-1 1,-2 1,-2 0,0 0,1 0,2 0,0 0,1 0,1 1,0 1,1 1,1 0,1 0,1 0,1 -1,1 -1,1 -1,2 0,0 0,0 0,0 0,1 1,1 1,1 0,1 -1,1 -1,1 -1,1 -2,1 -2,2 0,0 0,1 -1,1 1,0 1,0 2,-1 0,1 -1,2 -2,3 1,-1 2,-1 3,-2 0,-1 1,-1 1,-2 0,0 0,-1 0,-1 0,-1 0,-2 0,-2 0,-1 0,-2 0,-3 1,0 1,0 1,1 0,0 0,1 0,1 0,0 0,0 0,0 0,1 0,2 1,2 0,0 0,1 0,1 0,0 0,0 0,0 0,1 0,1 0,2 0,1 0,1 0,2 0,0 -1,1 -1,1 1,1 0,2 0,2 1,0 1,-1 1,-1 0,-1 0,-1 0,-1 0,0 0,-1 0,-1 1,0 1,-1 1,-2 0,0 0,0 0,0 0,-1 0,-1 0,-2 1,1 1,2 1,3 0,0 0,1 0,1 1,1 1,2 0,2 0,0 0,0 0,0 0,1 0,1 0,1 1,0 1,-2 1,-3 0,0 0,-1 0,-2 0,0 0,-1 -1,-2 0,0 0,0 0,0 0,0 0,0 0,0 1,1 2,1 2,3 0,0 0,0 0,0 1,1 1,1 1,1 0,0 0,-1 0,-1 -1,0 -1,-1 0,-1 0,-1 0,-1 -1,-2 0,0 0,0 0,0 0,0 0,0 1,0 0,1 1,1 1,2 0,1 0,1 1,2 0,0 0,1 0,1 0,-1 0,-1 0,-1 0,-1 0,-1 0,-2 1,1 2,2 2,3 0,-1 0,-2 -1,-3 0,0 0,0 -1,-1 0,0 0,0 0,0 0,0 0,0 1,0 0,0 0,0 0,0 0,1 0,1 1,1 0,0 0,0 1,1 0,0 0,0 1,0 0,1 0,1 0,2 0,0 0,1 0,1 1,1 1,1 1,2 0,1 0,1 0,1 1,1 1,1 1,2 0,0 0,0 0,1 0,0 0,0 0,0 0,1 0,1 0,2 0,0 0,-1 1,-1 0,-1 0,-1 0,-2 0,0 0,0 0,-1 0,0 -1,-1 -1,-1 0,0 0,-1 0,-1 0,0 0,0 0,0 0,-1 0,-1 0,-1 0,1 1,1 1,1 0,-1 0,-1 -1,-1 0,-1 0,-1 -1,-1 0,0 0,-1 0,-1 0,-1 0,-1 0,-1 0,0 0,-1 0,-1 0,0 0,0 -1,0 1,0 1,0 2,0 0,0 0,0 1,1 0,0 0,1 0,1 0,0 1,1 1,2 0,-1 0,-1 0,-1 0,-1 -1,-2 -1,-2 0,-1 0,-1 -1,-1 0,0 -1,-1 -1,-1 -1,0 -1,-1 -2,-1 0,0 0,0 0,0 1,0 2,0 3,0 0,0 0,1 1,1 1,0 2,1 2,2 0,0 1,1 1,1 2,0 3,1 3,2 0,0 0,0 0,0 0,0 0,0 0,0 0,-2 -1,-3 -3,-3 1,-1 1,-1 2,0 0,-1 0,-2 -1,-2 0,0 -1,0 -1,-1 0,0 0,0 0,0 -1,0 -2,0 -2,0 -1,-1 -1,-1 -2,-1 0,0 0,0 0,0 0,0 0,0 -1,0 1,0 1,-1 1,-1 1,0 2,1 2,1 0,1 1,1 1,1 1,-1 2,-1 2,0 1,0 2,1 3,2 1,0 1,1 1,2 0,0 0,0 1,0 1,1 1,1 1,2 0,0 0,0 0,0 1,0 1,0 1,1 0,0 1,1 1,2 0,0 0,0 0,0 0,0 0,0 0,0 0,0 0,0 0,0 0,-1 0,-2 0,-2 -1,-1 -1,-2 -2,-3 -1,0 -1,-1 -1,-2 -1,-1 -1,-1 -2,-1 0,0 0,0 0,0 0,0 0,-1 0,-1 1,0 1,0 2,1 0,0 1,0 1,1 0,0 1,0 1,0 0,0 0,0 0,-1 -1,0 -1,0 -1,-1 1,0 1,0 3,2 0,-2 -2,-2 -3,-3 1,-1 3,0 3,1 0,0 1,1 2,1 0,1 0,1 0,1 0,1 0,1 0,1 2,1 3,1 3,3 0,-1 0,-2 -1,-2 0,-1 0,-1 -1,-1 0,0 0,0 0,-1 0,-1 -1,-1 -2,-2 0,0 0,0 0,0 0,0 0,0 0,0 0,0 1,0 1,0 0,-1 -1,-1 -1,-1 1,0 2,0 3,1 0,1 0,1 1,1 1,1 1,1 1,2 0,0 1,1 1,1 0,0 0,0 0,0 1,1 1,1 1,1 0,0 0,-1 -1,-1 0,-1 0,-1 0,-1 0,-1 -1,-2 -2,-2 0,-1 0,-1 0,-1 0,0 -1,-1 -1,-1 1,0 1,0 1,0 1,0 2,1 2,2 0,0 1,1 1,1 0,0 1,0 1,1 0,-1 -1,-1 -1,-2 0,0 0,0 0,0 1,0 1,0 2,0 0,1 1,1 2,2 0,0 0,1 0,1 0,1 0,1 1,1 0,1 1,1 1,2 0,0 1,0 1,0 0,1 0,1 0,2 0,0 0,0 0,1 0,0 0,0 1,1 0,0 0,1 0,1 -1,1 -1,2 0,2 0,0 0,1 0,1 0,1 0,2 0,2 -1,0 -1,1 -1,1 0,0 0,0 1,0 0,1 0,2 -1,3 0,0 0,0 0,0 0,0 0,1 0,1 0,1 0,1 0,2 0,1 0,1 -1,2 0,0 0,0 0,1 0,1 0,2 0,3 0,0 0,1 -1,1 0,0 0,0 0,1 0,0 0,0 0,0 0,1 0,1 -1,2 0,0 0,0 0,0 0,1 0,1 -1,1 0,0 0,0 0,0 0,1 0,1 1,1 0,1 0,1 0,2 0,2 0,4 0,6 0,2 0,4 1,6 0,0 0,0 0,0 0,1 -1,2 -1,2zm-6 3l0 0c1,-1 1,-2 1,-3 1,-1 1,-2 1,-3 1,-3 0,-6 0,-9 0,-1 -1,-2 -2,-3 0,0 0,0 0,0 -1,0 -1,0 -2,-1 0,0 0,0 0,0 0,0 0,0 0,0 -1,0 -2,0 -2,-1 0,0 0,0 0,0 -1,0 -1,1 0,1 0,0 0,0 0,0 1,1 1,2 0,4 0,0 -1,1 -1,2 -1,2 -1,3 -2,5 0,1 -1,2 -1,3 0,1 0,2 -1,2 0,0 0,0 0,0 0,1 0,1 -1,2 0,0 0,1 1,1 1,-1 2,-2 3,-3 -1,1 -1,2 -2,3 0,0 0,0 1,0 0,0 0,-1 1,-1 0,0 0,0 0,0 0,0 0,0 0,0 0,0 0,0 0,0 0,0 1,-1 1,-2 0,0 0,0 0,0 0,0 0,1 0,2 0,0 0,0 0,0 1,-2 3,-3 4,-5 0,0 0,0 0,0 -1,1 -1,2 -2,3 0,1 -1,2 -1,3 0,0 0,0 0,0 0,-1 1,-1 1,-2 0,0 0,0 0,0 0,1 0,1 0,2 0,0 0,0 0,0 1,-1 2,-2 2,-3 0,0 0,0 1,0 -1,1 -1,2 -2,3 0,0 0,0 0,0 1,-1 2,-3 3,-4 0,0 0,0 0,0 0,2 -1,3 -1,4 0,0 0,0 0,0 0,0 0,0 0,0zm-14 -3c0,0 0,0 1,0 0,-1 0,-1 0,-1l0 -1 0 0 1 0c1,-2 1,-4 2,-6 0,-1 1,-2 1,-4 0,0 0,0 0,-1 0,0 0,-1 -1,-1 0,0 -1,-1 -1,-1 0,0 0,0 -1,0 0,0 -1,-1 -1,-1 0,0 0,-1 0,-1 0,0 0,0 -1,0 -1,0 -1,0 -1,-1 0,-1 0,-1 0,-1 0,0 0,0 -1,0 0,0 0,0 0,0 -1,1 -1,1 -2,1 0,0 -1,0 -1,0 -1,0 -2,0 -2,-1 0,0 0,0 -1,0 1,1 1,1 1,1 0,0 -1,0 -1,0 -1,0 -2,0 -3,-1 0,0 0,0 0,0 0,0 -1,0 -1,0 1,0 1,1 1,1 -1,0 -2,-1 -3,-2 0,0 0,0 0,0 0,1 0,1 0,1 0,1 -1,1 -1,1 -1,0 -1,0 -1,0 0,0 -1,1 -1,1 -1,0 -1,0 -2,0 0,1 0,1 0,1 0,1 0,1 0,1 0,0 0,0 0,0 0,1 0,2 -1,3 0,3 0,6 1,9 0,0 0,0 0,1 0,1 0,1 -1,2 0,0 0,0 0,0l0 1 1 0c0,0 0,-1 0,-1 0,0 0,1 0,1 1,0 1,0 2,0l-1 -1 1 1 0 -4 1 3 0 -6 2 5 -1 -7 2 7 0 -1c0,1 1,1 1,2 0,0 0,0 0,0l0 0c0,0 1,0 1,0l0 -1 0 1 1 -4 1 4 0 -7 1 6 1 -5 0 3c0,1 0,2 0,4 0,0 0,0 0,0 1,0 1,0 1,0 0,-2 0,-4 0,-6 0,2 1,4 1,6 0,-1 0,-1 0,-2 1,0 1,-1 1,-1 0,0 0,0 0,0 0,0 0,1 0,2 0,0 0,0 0,0 1,-1 1,-1 1,-2 0,0 0,0 0,0 0,1 0,2 0,3 0,0 0,0 0,0 0,0 0,-1 0,-1 0,0 0,0 0,0 0,1 0,1 0,2 0,0 0,0 0,0 0,0 0,0 0,-1 1,0 1,0 1,-1l0 1 0 1c0,0 0,0 1,0l0 0 0 0 1 -3 0 1zm-42 -71c0,-2 2,-2 3,-3 1,0 2,1 3,2 0,0 -1,0 -1,0 0,1 -1,1 -1,0 -1,0 -1,0 -1,0 0,0 -1,0 -1,0 0,0 -1,0 -1,0 0,0 -1,1 -1,1zm18 71c0,-1 1,-1 1,-2 0,-1 0,-2 0,-4 0,-2 0,-4 0,-5 -1,-1 -1,-2 -1,-3 1,-1 1,-3 0,-4 0,0 0,0 0,0 0,0 0,0 0,0 -1,1 -1,1 -1,2 0,0 0,0 0,0 0,0 0,0 0,1 0,0 0,0 0,0 0,1 0,1 0,1 0,1 0,2 0,3 0,0 0,1 0,2 0,2 0,3 0,5 1,-1 1,-2 1,-2l0 3 0 0c0,0 0,0 0,0l0 0c0,0 0,0 0,0l0 1c0,0 0,0 0,1 0,0 0,0 0,0l0 0 0 1zm-3 -53l0 0c1,0 1,-1 2,-1 0,-1 1,-2 0,-3 0,0 0,-1 1,-1 0,-1 0,-1 0,-1 0,0 -1,1 -1,1 -1,1 -1,1 0,2 0,0 0,1 -1,1 0,0 0,1 0,1 -1,1 -1,1 -1,1zm42 9l0 0c0,1 0,1 0,1 0,1 0,1 0,1 1,1 1,1 1,1 0,0 0,1 0,1 0,-1 0,-1 0,-2 0,0 0,-1 0,-1 -1,0 -1,-1 -1,-1zm-6 -4l0 0c0,1 0,1 0,1 0,0 0,1 0,1 1,0 1,0 1,1 1,0 1,0 1,1 0,-2 -1,-3 -2,-4zm-47 -17l0 0c0,0 -1,0 -1,0 -1,0 -1,0 -1,0 0,0 0,0 1,0 0,0 1,0 1,0zm9 7l0 0c1,0 2,-1 2,-2 -1,1 -1,2 -2,2zm42 65c0,0 0,1 0,2 -1,0 -1,0 -1,0l1 -2zm-66 4l0 0c0,0 -1,0 -1,-1 0,0 1,0 1,0l0 1zm62 1l0 0 0 0 0 0zm-22 -1l0 0c1,0 1,0 1,0 0,0 0,-1 0,-1 0,0 0,0 0,0 0,0 0,1 -1,1zm-4 -1l0 0c0,0 0,0 0,0 0,0 0,1 0,1 0,0 0,0 0,0 0,0 0,0 0,0 0,0 0,-1 0,-1zm7 1l0 0c0,0 0,0 0,-1 -1,0 -1,0 -1,0 0,1 0,1 0,1 0,0 0,0 0,0 0,0 0,0 1,0z"/>
 </g>
</svg>
