<?xml version="1.0" encoding="UTF-8"?>
<!DOCTYPE svg PUBLIC "-//W3C//DTD SVG 1.1//EN" "http://www.w3.org/Graphics/SVG/1.1/DTD/svg11.dtd">
<!-- Creator: CorelDRAW X6 -->
<svg xmlns="http://www.w3.org/2000/svg" xml:space="preserve" width="39.3295mm" height="26.036mm" version="1.1" style="shape-rendering:geometricPrecision; text-rendering:geometricPrecision; image-rendering:optimizeQuality; fill-rule:evenodd; clip-rule:evenodd"
viewBox="0 0 270 178"
 xmlns:xlink="http://www.w3.org/1999/xlink">
 <defs>
  <style type="text/css">
   <![CDATA[
    .fil0 {fill:#FF4560}
   ]]>
  </style>
 </defs>
 <g id="Layer_x0020_1">
  <metadata id="CorelCorpID_0Corel-Layer"/>
  <path class="fil0" d="M223 53c2,0 4,1 6,2 3,1 5,1 8,2 0,0 1,0 2,0 0,1 4,3 4,3 2,1 4,2 6,1 1,0 3,-1 5,-1 1,0 2,0 2,-1 0,-2 1,-3 1,-5 0,-1 0,-2 -1,-2 -3,-4 -7,-10 -8,-15 -1,-2 -1,-5 -1,-7 1,-3 0,-5 -1,-7 -1,-1 -2,-2 -3,-4 0,0 0,0 -1,0 3,-2 6,-6 7,-10 1,-3 -1,-5 -3,-1 -2,3 -5,4 -7,5 -1,0 -1,-1 -1,-1 -2,-1 -3,-2 -5,-2 -1,0 -3,0 -5,0 0,0 -1,0 -2,0 -3,-2 -6,-4 -8,-8 -2,-4 -4,-1 -2,3 1,3 2,6 4,10 -1,0 -2,1 -4,1 -1,0 -2,-1 -3,-1 -2,-1 -3,-2 -5,-2 -2,0 -3,0 -4,1 -1,1 -1,2 -1,3 0,0 0,1 1,2 1,2 2,3 4,5 2,1 3,1 5,1 1,0 3,0 4,0 0,0 1,0 1,0 0,0 0,0 0,0 0,0 0,0 0,0 -2,1 -3,1 -5,1 -3,1 -5,0 -7,-2 -1,-1 -1,-1 -2,-2 0,-1 0,-1 -1,-1 -3,1 -7,3 -10,0 -1,-1 -2,-2 -3,-3 -15,-15 -27,3 -34,4 -4,1 -7,0 -11,-1 -17,-3 -40,1 -45,0 -8,-1 -17,-2 -24,-6 -4,-1 -8,-2 -11,0 -2,0 -4,1 -5,2 -2,1 -5,2 -7,2 -4,1 -8,1 -12,1 -2,0 -4,0 -6,0 -6,1 -11,3 -14,9 -1,1 -2,4 -3,6 -2,5 -2,11 -2,16 0,6 1,13 1,19 0,9 -1,18 -4,26 -2,8 -3,16 -2,23 0,5 1,9 2,14 0,0 0,1 1,2 0,0 0,0 0,0 1,-1 1,-1 1,-2 1,-4 2,-8 3,-13 2,-8 3,-16 3,-24 -2,-17 0,-33 1,-50 0,-4 1,-8 3,-11 2,-4 6,-5 10,-3 0,0 -1,1 -1,1 -3,5 -4,10 -4,16 0,6 1,11 3,17 2,5 5,11 7,16 1,3 1,5 1,8 1,5 -1,9 -3,13 -2,1 -3,3 -5,5 -1,2 -2,2 -1,4 1,5 1,11 2,16 1,7 3,11 4,18 1,3 1,6 1,9 0,0 0,1 0,1l-1 0c0,0 0,0 0,0l1 1c0,0 0,1 1,2l-1 0c-2,-3 -3,-6 -5,-9 0,0 0,0 0,0 0,2 1,4 2,5 0,2 0,2 0,3 0,0 0,1 1,1 -1,0 -2,1 -2,1 -2,-3 -4,-6 -6,-9 0,0 0,0 0,0 1,2 2,4 3,6 -1,0 -1,0 -1,0 0,1 1,2 2,3 -1,0 -2,0 -3,0 -2,-2 -4,-3 -6,-5 0,0 -1,0 -1,0 2,1 4,3 5,5 -1,0 -2,-1 -3,-1 0,0 -1,0 -1,0 2,1 3,1 4,2 -2,1 -2,1 -3,0 -2,-1 -3,-2 -5,-3 0,0 0,0 0,0 1,1 3,2 5,4 -2,1 -4,-1 -5,-1 0,1 0,1 1,1 -2,0 -4,0 -5,0 0,1 0,1 0,1 1,0 2,0 3,0 0,0 0,0 0,1 -3,0 -6,1 -10,1 -3,1 -6,1 -9,1 0,1 0,1 0,1 8,0 16,-1 23,-1 0,0 0,0 0,1 0,0 0,0 0,0 0,0 0,0 0,0 0,0 -1,0 -1,0 -5,0 -10,0 -15,1 0,0 0,0 0,0 5,0 10,0 16,0 0,0 0,0 0,1 -1,0 -2,0 -2,0 6,1 12,0 18,2 0,0 0,-1 0,-1 0,0 0,0 0,0 1,0 1,1 2,1 0,1 1,2 2,1 -2,-4 -5,-5 -9,-7 0,0 0,0 0,0 2,0 3,0 4,1 3,1 5,3 7,6 0,0 1,1 1,1 0,0 1,0 1,0 -1,-2 -1,-4 -2,-6 1,1 2,2 2,3 1,1 1,2 1,4 1,0 1,0 2,0 0,-1 -1,-1 -1,-2 0,0 0,0 0,0 1,0 2,1 3,1 0,-1 -1,-2 -1,-3 1,0 2,1 3,1 -1,-1 -2,-2 -2,-4 1,1 1,2 2,2 1,2 3,3 5,4 0,-1 1,-2 2,-3 0,1 1,2 1,3 0,0 0,1 0,1 1,0 1,0 2,0 0,-2 -1,-3 -1,-5 2,2 2,5 4,7 1,-3 -3,-10 -7,-16 0,0 1,1 1,1 2,2 4,4 5,6 1,2 3,5 4,8 0,0 0,0 1,1 0,0 0,0 0,0 0,-1 0,-2 -1,-3 0,0 0,0 0,0 1,1 2,2 3,3 0,0 0,0 0,0 0,-1 0,-2 0,-4 0,1 0,1 1,2 1,-3 3,-6 4,-9 0,0 0,0 1,0 -2,4 -2,7 1,10 1,-2 2,-4 3,-6 0,0 0,0 0,0 0,3 -1,5 0,8 0,0 1,-1 1,-1 1,1 1,1 2,2 0,0 0,0 0,-1 -1,-1 -2,-2 -3,-3 1,0 2,1 3,1 0,1 1,1 2,1 2,0 3,1 4,1 -1,-1 -2,-3 -3,-4 0,0 0,0 0,0 2,0 5,1 7,2 0,-1 0,-1 0,-1 1,1 1,3 3,3 0,-1 0,-2 -3,-6 4,2 7,4 10,7 0,-3 -2,-4 -3,-6 0,0 1,0 1,0 0,0 1,0 1,0 0,1 1,2 3,2 1,0 3,1 5,1 0,0 1,0 1,0 0,-1 0,-2 -1,-3 2,2 3,5 6,5 -1,-2 -2,-4 -3,-6 -1,-2 -2,-4 -3,-6 4,3 8,7 10,11 0,0 0,0 1,0 -1,-4 -2,-8 -3,-12 1,1 2,3 2,4 1,2 1,4 2,5 0,2 0,3 1,5 0,-2 1,-3 1,-5 0,0 0,-1 -1,-1 0,-1 0,-1 0,-2 3,2 4,5 5,8 1,-1 1,-2 1,-3 0,-1 1,-2 1,-3 1,-1 1,-1 2,-2 0,0 0,0 0,0 -1,2 -1,4 -2,6 0,0 1,0 1,0 0,-2 1,-3 1,-5 0,0 1,0 1,0 0,2 0,4 0,6 2,-3 3,-7 7,-10 -2,4 -4,7 -4,11 0,0 1,0 1,0 2,-2 3,-4 5,-6 -1,1 -1,2 -1,3 1,0 2,0 3,0 0,-1 0,-2 0,-2 1,2 3,3 5,3 1,1 2,1 3,2 -1,-2 -2,-3 -4,-4 3,0 4,1 6,3 0,-3 0,-5 -1,-7 0,0 0,0 0,0 0,-1 0,-2 0,-3 0,0 0,0 1,0 0,2 1,3 2,5 0,0 0,0 0,0 0,-1 0,-2 1,-3 0,0 0,0 0,0 0,1 0,3 0,5 1,1 3,1 4,2 0,-1 0,-2 0,-3 0,0 0,0 0,0 1,2 2,3 3,5 1,-2 1,-3 0,-4 -1,-1 -2,-2 -3,-3 1,0 2,1 3,1 1,-1 1,-2 0,-3 -1,-1 -2,-2 -2,-2 1,0 2,1 4,2 0,1 1,2 2,3 0,-1 0,-1 0,-2 1,1 1,1 1,1 0,-1 0,-2 -1,-6l2 0c1,3 1,7 2,10 0,0 0,0 1,0 0,-1 0,-2 1,-4 0,1 0,1 1,2 0,-3 0,-5 0,-8 0,0 1,0 1,0 0,2 1,5 1,8 1,-4 2,-7 4,-9 0,2 -1,4 -2,6 0,0 1,0 1,1 1,-2 2,-4 5,-5 -1,1 -2,3 -3,4 -1,2 -1,4 -2,5 0,0 0,0 1,0 1,-2 2,-5 4,-7 0,0 0,0 0,0 -1,3 -1,5 -2,8 0,0 0,0 0,0 1,0 1,0 1,0 1,-2 1,-3 2,-4 0,-1 0,-2 1,-4 0,2 0,3 1,5 0,-1 1,-2 1,-3 1,0 1,0 1,0 -1,1 -1,3 -2,4 1,0 2,0 2,0 0,-1 1,-2 1,-3 0,1 0,1 1,2 0,-1 1,-2 2,-4 -1,-1 -3,-2 -4,-3 0,0 0,0 0,-1 2,1 3,2 5,3 -1,-3 -3,-5 -5,-7 4,2 6,5 8,9 0,0 0,0 0,0 0,-3 0,-5 -1,-8 0,0 0,0 1,0 0,1 0,2 0,2 1,2 1,3 2,4 0,1 0,2 1,2 1,-2 0,-3 -1,-5 1,1 1,1 2,1 0,0 0,-1 0,-1 0,0 0,0 0,0 0,0 0,0 0,0 1,2 2,4 3,5 0,1 1,1 2,1 -1,-1 -2,-3 -3,-4 1,0 1,0 1,0 1,0 2,1 3,2 0,0 0,-1 0,-2 0,0 0,0 0,0 0,2 0,3 1,4 1,-2 0,-5 1,-7 0,1 0,1 0,2 1,-2 2,-3 4,-4 -2,2 -2,5 -2,8 1,-1 2,-2 2,-6 1,1 1,1 2,1 0,1 0,2 1,3 3,-1 6,-3 10,-3 -2,0 -3,1 -5,2 1,0 1,0 2,0 3,0 6,0 9,0 5,0 10,-1 15,-1 0,0 1,0 1,0 -3,0 -7,-1 -11,-1 0,0 0,0 0,0 10,0 19,0 29,0 0,0 0,0 0,0 -7,-1 -13,-1 -19,-2 3,0 5,0 8,0 0,0 0,0 0,-1 -3,0 -6,0 -10,-1 1,-1 2,-2 3,-2 1,-1 2,-1 4,-2 0,0 0,0 -1,0 -1,0 -3,1 -4,1 0,-1 0,-1 0,-1 -1,2 -3,2 -5,3 -1,0 -2,0 -3,0 0,1 -1,1 -1,1 0,-1 1,-2 2,-2 0,-1 1,-1 2,-2 0,0 0,0 0,0 -2,1 -3,2 -5,2 -1,2 -4,2 -6,1 2,-1 4,-2 6,-3 0,0 0,0 0,0 -2,0 -4,1 -6,2 1,-3 1,-6 2,-9 -1,0 -1,0 -1,0 -1,3 -1,7 -2,10 -1,0 -2,0 -3,0 1,-1 2,-2 2,-2 -1,0 -3,2 -5,1 1,-1 2,-1 3,-2 0,0 0,0 0,0 -1,0 -2,0 -3,1 2,-4 4,-8 4,-12 -2,5 -4,9 -7,13 0,0 0,0 0,0 0,-1 0,-1 -1,-1 1,-1 1,-2 2,-2 0,0 0,0 0,0 -1,0 -2,1 -3,2 0,-1 0,-2 -1,-3 0,-1 1,-1 2,-2 0,0 1,-1 2,-1 0,0 0,0 0,0 -2,0 -3,1 -5,2 -1,0 -2,-1 -2,-2 1,4 0,5 -3,6 0,-1 0,-1 -1,-2 0,1 -1,1 -2,2 0,-1 0,-1 0,-1 0,-1 2,-2 3,-3 -1,1 -2,1 -3,1 1,-2 1,-3 2,-5 0,0 0,0 0,0 -1,0 -2,1 -2,2 0,0 0,0 0,0 0,4 -2,5 -4,5 1,-1 2,-2 2,-3 1,0 1,-1 2,-2 -2,1 -3,2 -5,3 0,-4 1,-9 -1,-13 0,3 1,5 0,8 0,2 0,4 0,6 -1,1 -1,1 -1,2 0,0 0,0 -1,-1 0,0 1,0 1,-1 -2,2 -3,2 -5,1 1,-1 3,-2 4,-2 0,0 0,0 0,0 -2,0 -3,1 -5,1 0,0 0,0 0,0 1,-2 2,-3 3,-4 0,0 0,0 0,-1 0,1 -1,1 -1,2 -1,1 -2,2 -3,3 -1,1 -1,1 -3,1 1,-3 2,-5 4,-7 -1,0 -1,0 -1,0 -1,2 -3,5 -4,7 0,0 0,0 0,0 0,-1 -1,-1 0,-1 0,-4 2,-7 4,-10 0,0 0,-1 0,-1 0,0 0,0 0,0 -3,3 -4,6 -5,9 -1,1 -1,2 -2,3 0,0 -1,0 -2,0 2,-3 3,-5 4,-7 0,0 0,0 0,0 -1,1 -3,2 -4,4 0,-3 1,-5 1,-8 0,0 0,0 -1,0 0,3 -1,5 -1,8 0,-1 -1,-1 -1,-1 0,1 1,2 -1,3 0,0 0,0 -1,-1 0,1 0,2 -2,1 1,-2 2,-4 2,-5 0,0 0,-1 0,-1 -1,2 -2,4 -3,6 0,-1 -1,-2 -1,-3 0,-1 0,-2 1,-2 1,-1 3,-2 4,-3 -1,0 -1,0 -1,0 -1,1 -3,1 -4,2 0,0 -1,0 -1,1 0,0 -1,1 -1,1 0,0 0,0 0,0 1,-5 4,-9 7,-13 -2,1 -4,3 -6,6 -1,3 -3,5 -4,8 0,-5 1,-9 2,-13 0,0 0,0 0,0 -1,4 -3,9 -4,13 -1,0 0,-1 0,-1 -1,-2 -1,-4 -1,-5l0 0 -1 9 -1 -13 -1 8 0 0c0,-1 -1,-2 -1,-3l0 0 0 0c-1,-7 -1,-15 1,-22 1,-5 2,-10 2,-16 1,-3 1,-5 3,-8 2,-3 8,-8 9,-11 -1,4 -2,5 -4,8 -2,2 -2,4 -4,6 -1,1 -1,2 -1,3 3,-1 6,-2 8,-3 3,0 6,-1 8,-5 4,1 7,-1 9,-3 1,-1 2,-2 2,-2 4,-2 6,-5 7,-9 2,-5 1,-6 3,-11 0,-2 0,-4 0,-7 2,5 4,2 10,-1 4,-3 0,-11 8,-11 -3,-1 -6,-2 -8,-3zm-171 104c-1,0 -1,-1 -1,-1l-1 -1 2 2zm-2 -4c-1,-5 -3,-8 -4,-14 0,-5 -1,-10 1,-15 3,-8 7,-13 12,-20 1,-2 2,-3 5,-4 2,0 4,-2 5,-4 0,-1 1,-3 1,-4 1,-1 2,-3 2,-4 3,-5 8,-5 13,-1 -8,-3 -10,-1 -12,4 2,1 4,2 5,3 2,0 4,1 5,2 4,3 8,6 11,9 3,2 5,3 8,2 5,-2 18,-12 32,-11 7,2 14,3 20,6 0,1 1,1 2,1 0,0 0,0 0,-1 -3,-15 -6,-13 -9,-19 3,4 7,5 8,9 1,3 1,6 2,8 2,5 3,7 3,12 -1,2 0,7 0,9 0,2 0,4 0,6 1,3 0,12 0,15 0,3 1,4 1,7l-2 5 0 -12 -2 9 -1 -3c0,1 -1,2 -1,3 0,0 0,0 0,0 -1,-2 -2,-4 -2,-6 0,0 -1,0 -1,0 1,3 1,5 1,7 0,0 0,0 0,0 0,-1 -1,-2 -1,-2 0,1 0,2 0,3 0,0 1,1 0,2 -1,-3 -1,-5 -3,-8l0 0c0,-5 0,-12 2,-17 1,-3 2,-6 3,-8 1,-3 1,-9 2,-11 1,-2 1,-1 1,-2 0,-2 0,-3 -2,-4 -3,-1 -6,-2 -9,-3 0,0 -1,-1 -2,-1 0,4 -1,5 -2,9 0,4 -1,11 0,16 1,1 0,2 0,4 -1,5 -2,11 -3,17l0 -2 -1 7 -2 -6c0,0 1,11 1,11l-2 -7 -1 7 -2 -11 0 9 -3 -5c1,1 1,3 1,4 0,-1 0,-1 -1,-1 -1,1 -1,3 -3,2 1,-1 2,-2 3,-3 -1,0 -1,0 -1,0 0,0 -1,1 -2,1 0,-1 0,-2 0,-3 0,0 0,0 0,0 -1,1 -1,3 -2,4 0,0 0,-1 -1,-2 0,2 -1,4 -3,4 1,-3 1,-5 1,-8 -1,2 -1,4 -2,7l0 0c-1,-2 -2,-4 -3,-6 0,0 0,0 0,0 0,2 1,3 1,5 0,0 0,0 0,0 -2,-1 -3,-2 -4,-3 0,1 0,2 0,3 -1,0 -1,0 -2,0 0,-2 1,-4 1,-6 -1,1 -1,2 -2,3 -1,-1 -1,-2 -2,-2 0,0 0,0 0,0 0,1 1,3 2,4 -1,1 -1,1 -4,-3 1,1 1,3 1,4 0,0 0,0 0,0 -1,-1 -3,-2 -4,-2 0,1 0,1 -1,2 -1,0 -1,-1 -1,-2 1,-2 1,-3 2,-4 0,0 0,0 0,-1 0,0 0,0 0,0 -1,2 -2,4 -4,6 0,-1 0,-2 0,-3 -1,2 0,3 -1,5 -1,-2 -1,-3 -2,-4 0,0 0,0 0,0 0,1 0,2 0,3 0,0 0,0 0,0 -1,-1 -1,-2 -1,-3l-2 4 -1 -10 -2 10 -2 -6 -3 6 1 -11 -4 10 0 -4c0,0 0,0 0,1 -1,-3 -2,-5 -2,-7 0,3 1,6 0,10 0,-2 -1,-3 -1,-4l-1 -1 1 5 -4 -11 0 14 -4 -9 0 7 -1 -2 -1 -4c0,1 0,2 0,3 0,0 0,0 0,0 -3,-4 -7,-8 -7,-9 -1,-3 -2,-7 -3,-11 -2,-7 -1,-14 2,-20 1,-3 2,-3 3,-6 0,-1 0,-2 1,-4 -1,0 -1,0 -1,0 -1,1 -2,1 -2,2 -2,1 -3,3 -4,5 -3,5 -5,8 -8,13 -1,2 -1,4 -2,7 0,1 0,2 0,4 1,2 2,5 3,7 1,4 3,6 4,9l0 7 -1 -1c0,0 0,1 0,2l-4 -4zm128 9l0 0 0 0 0 0zm-29 -12c0,1 0,1 0,2 0,1 0,2 1,3 0,0 0,0 0,0 0,-2 0,-4 -1,-5zm-91 6c0,0 0,-1 0,-1l0 2 0 -1zm164 -136c-2,0 -3,0 -5,-1 -1,0 -2,-1 -3,-1 -1,-1 -2,-2 -4,-3 -2,0 -4,-1 -6,1 1,-3 5,-2 7,-1 2,1 3,2 5,2 1,1 2,2 4,2 1,0 1,0 2,1zm-6 18c2,8 6,8 11,13 -6,-3 -9,-6 -11,-13zm11 -11l0 0c1,-1 2,-1 3,-1 0,0 1,0 1,0 2,1 4,4 4,6 -1,0 -1,-1 -2,-2 0,-1 -2,-2 -3,-2 -1,0 -1,0 -2,0 -1,0 -1,-1 -1,-1zm23 25c1,1 2,2 3,2 1,0 1,-1 2,-1 0,1 -1,2 -2,3 -1,-1 -1,-1 -2,-1 -1,-1 -1,-1 -2,-1 0,-1 0,-1 1,-2zm-23 -22c0,0 0,0 0,0 0,4 3,4 5,4 -1,1 -3,1 -5,-1 -1,-1 -1,-2 0,-3zm15 27c0,-1 1,-1 1,0 1,0 2,1 2,2 1,0 2,1 3,1 0,0 1,0 1,0 -1,0 -2,1 -3,0 -2,-1 -3,-2 -4,-3zm-191 93c1,1 1,2 1,3 1,0 1,1 2,1l-3 -4zm127 6l0 0c1,-1 2,-2 3,-3 0,0 0,0 0,0 0,1 0,2 0,3 -1,0 -2,0 -3,0zm-72 -1l0 0c-1,1 -2,1 -2,1 0,-1 0,-2 0,-3 0,0 0,0 0,0 1,1 1,1 2,2zm124 7l0 0c0,0 0,0 0,0 -2,0 -4,1 -6,1 0,0 0,0 0,0 2,-1 4,-1 6,-1zm-9 -6l0 0c0,0 0,0 0,0 0,1 0,1 0,2 0,0 -1,0 -1,0 0,-1 1,-2 1,-2zm-107 -4l0 0c0,0 0,0 0,0 0,1 1,1 1,2 0,0 0,0 0,0 0,0 -1,0 -1,0 0,-1 0,-1 0,-2zm-14 4l0 0c1,-1 1,-1 1,-2 0,0 0,0 0,0 0,1 1,1 1,2 0,0 0,0 0,0 0,0 -1,0 -2,0zm148 4l0 0c0,0 0,0 1,0 -1,0 -1,1 -2,1 0,0 -1,0 -1,0 0,0 0,0 0,-1 1,0 2,0 2,0zm-145 5l0 0c0,1 0,1 0,2 -1,-1 -1,-1 -1,-1 0,-1 0,-1 0,-1 1,0 1,0 1,0z"/>
 </g>
</svg>
